<?xml version="1.0" encoding="UTF-8" standalone="no"?>
<svg width="158.044mm" height="104.069mm"
 viewBox="0 0 448 295"
 xmlns="http://www.w3.org/2000/svg" xmlns:xlink="http://www.w3.org/1999/xlink" version="1.1">
<title>Qt SVG Document</title>
<desc>MATLAB, The MathWorks, Inc. Version 26.1.0.3312084 R2026a Update 4</desc>
<defs>
</defs>
<g fill="none" stroke="black" stroke-width="1" fill-rule="evenodd" stroke-linecap="square" stroke-linejoin="bevel" >

<g fill="#ffffff" fill-opacity="1" stroke="none" transform="matrix(0.5,0,0,0.5,0,0)"
font-family="Microsoft YaHei UI" font-size="9" font-weight="400" font-style="normal" 
>
<path vector-effect="none" fill-rule="evenodd" d="M0,0 L897,0 L897,591 L0,591 L0,0"/>
</g>

<g fill="#ffffff" fill-opacity="1" stroke="none" transform="matrix(5e-05,0,0,5e-05,0,0)"
font-family="Microsoft YaHei UI" font-size="9" font-weight="400" font-style="normal" 
>
<path vector-effect="none" fill-rule="evenodd" d="M8.51e+06,1.06e+06 L1.34e+06,1.06e+06 L1.34e+06,4.96e+06 L8.51e+06,4.96e+06 L8.51e+06,1.06e+06"/>
</g>

<g fill="#d9dee5" fill-opacity="0.180392" stroke="#d9dee5" stroke-opacity="0.180392" stroke-width="1.4" stroke-linecap="butt" stroke-linejoin="round" transform="matrix(0.5,0,0,0.5,0,0)"
font-family="Microsoft YaHei UI" font-size="9" font-weight="400" font-style="normal" 
>
<polyline fill="none" vector-effect="none" points="134,496 134,106 " />
<polyline fill="none" vector-effect="none" points="277.4,496 277.4,106 " />
<polyline fill="none" vector-effect="none" points="420.8,496 420.8,106 " />
<polyline fill="none" vector-effect="none" points="564.2,496 564.2,106 " />
<polyline fill="none" vector-effect="none" points="707.6,496 707.6,106 " />
<polyline fill="none" vector-effect="none" points="851,496 851,106 " />
</g>

<g fill="#1f2933" fill-opacity="1" stroke="#1f2933" stroke-opacity="1" stroke-width="1" stroke-linecap="square" stroke-linejoin="bevel" transform="matrix(0.5,0,0,0.5,208,274.002)"
font-family="Times New Roman" font-size="17" font-weight="400" font-style="normal" 
>
<text fill="#1f2933" fill-opacity="1" stroke="none" xml:space="preserve" x="0" y="0" font-family="Times New Roman" font-size="17" font-weight="400" font-style="normal" 
 >Network latency (ms)</text>
</g>

<g fill="#1f2933" fill-opacity="1" stroke="#1f2933" stroke-opacity="1" stroke-width="1.4" stroke-linecap="square" stroke-linejoin="round" transform="matrix(0.5,0,0,0.5,0,0)"
font-family="Times New Roman" font-size="17" font-weight="400" font-style="normal" 
>
<polyline fill="none" vector-effect="none" points="134,496 851,496 " />
<polyline fill="none" vector-effect="none" points="134,504.604 134,496 " />
<polyline fill="none" vector-effect="none" points="277.4,504.604 277.4,496 " />
<polyline fill="none" vector-effect="none" points="420.8,504.604 420.8,496 " />
<polyline fill="none" vector-effect="none" points="564.2,504.604 564.2,496 " />
<polyline fill="none" vector-effect="none" points="707.6,504.604 707.6,496 " />
<polyline fill="none" vector-effect="none" points="851,504.604 851,496 " />
</g>

<g fill="#1f2933" fill-opacity="1" stroke="#1f2933" stroke-opacity="1" stroke-width="1" stroke-linecap="square" stroke-linejoin="bevel" transform="matrix(0.5,0,0,0.5,64.75,263.502)"
font-family="Times New Roman" font-size="17" font-weight="400" font-style="normal" 
>
<text fill="#1f2933" fill-opacity="1" stroke="none" xml:space="preserve" x="0" y="0" font-family="Times New Roman" font-size="17" font-weight="400" font-style="normal" 
 >0</text>
</g>

<g fill="#1f2933" fill-opacity="1" stroke="#1f2933" stroke-opacity="1" stroke-width="1" stroke-linecap="square" stroke-linejoin="bevel" transform="matrix(0.5,0,0,0.5,134.2,263.502)"
font-family="Times New Roman" font-size="17" font-weight="400" font-style="normal" 
>
<text fill="#1f2933" fill-opacity="1" stroke="none" xml:space="preserve" x="0" y="0" font-family="Times New Roman" font-size="17" font-weight="400" font-style="normal" 
 >20</text>
</g>

<g fill="#1f2933" fill-opacity="1" stroke="#1f2933" stroke-opacity="1" stroke-width="1" stroke-linecap="square" stroke-linejoin="bevel" transform="matrix(0.5,0,0,0.5,205.9,263.502)"
font-family="Times New Roman" font-size="17" font-weight="400" font-style="normal" 
>
<text fill="#1f2933" fill-opacity="1" stroke="none" xml:space="preserve" x="0" y="0" font-family="Times New Roman" font-size="17" font-weight="400" font-style="normal" 
 >40</text>
</g>

<g fill="#1f2933" fill-opacity="1" stroke="#1f2933" stroke-opacity="1" stroke-width="1" stroke-linecap="square" stroke-linejoin="bevel" transform="matrix(0.5,0,0,0.5,277.6,263.502)"
font-family="Times New Roman" font-size="17" font-weight="400" font-style="normal" 
>
<text fill="#1f2933" fill-opacity="1" stroke="none" xml:space="preserve" x="0" y="0" font-family="Times New Roman" font-size="17" font-weight="400" font-style="normal" 
 >60</text>
</g>

<g fill="#1f2933" fill-opacity="1" stroke="#1f2933" stroke-opacity="1" stroke-width="1" stroke-linecap="square" stroke-linejoin="bevel" transform="matrix(0.5,0,0,0.5,349.3,263.502)"
font-family="Times New Roman" font-size="17" font-weight="400" font-style="normal" 
>
<text fill="#1f2933" fill-opacity="1" stroke="none" xml:space="preserve" x="0" y="0" font-family="Times New Roman" font-size="17" font-weight="400" font-style="normal" 
 >80</text>
</g>

<g fill="#1f2933" fill-opacity="1" stroke="#1f2933" stroke-opacity="1" stroke-width="1" stroke-linecap="square" stroke-linejoin="bevel" transform="matrix(0.5,0,0,0.5,418.75,263.502)"
font-family="Times New Roman" font-size="17" font-weight="400" font-style="normal" 
>
<text fill="#1f2933" fill-opacity="1" stroke="none" xml:space="preserve" x="0" y="0" font-family="Times New Roman" font-size="17" font-weight="400" font-style="normal" 
 >100</text>
</g>

<g fill="#1f2933" fill-opacity="1" stroke="#1f2933" stroke-opacity="1" stroke-width="1" stroke-linecap="square" stroke-linejoin="bevel" transform="matrix(0,-0.5,0.5,0,33.498,182)"
font-family="Times New Roman" font-size="17" font-weight="400" font-style="normal" 
>
<text fill="#1f2933" fill-opacity="1" stroke="none" xml:space="preserve" x="0" y="0" font-family="Times New Roman" font-size="17" font-weight="400" font-style="normal" 
 >Summary statistic</text>
</g>

<g fill="#1f2933" fill-opacity="1" stroke="#1f2933" stroke-opacity="1" stroke-width="1.4" stroke-linecap="square" stroke-linejoin="round" transform="matrix(0.5,0,0,0.5,0,0)"
font-family="Times New Roman" font-size="17" font-weight="400" font-style="normal" 
>
<polyline fill="none" vector-effect="none" points="134,106 134,496 " />
<polyline fill="none" vector-effect="none" points="125.396,141.75 134,141.75 " />
<polyline fill="none" vector-effect="none" points="125.396,206.75 134,206.75 " />
<polyline fill="none" vector-effect="none" points="125.396,271.75 134,271.75 " />
<polyline fill="none" vector-effect="none" points="125.396,336.75 134,336.75 " />
<polyline fill="none" vector-effect="none" points="125.396,401.75 134,401.75 " />
<polyline fill="none" vector-effect="none" points="125.396,466.75 134,466.75 " />
</g>

<g fill="#1f2933" fill-opacity="1" stroke="#1f2933" stroke-opacity="1" stroke-width="1" stroke-linecap="square" stroke-linejoin="bevel" transform="matrix(0.5,0,0,0.5,38.998,73.625)"
font-family="Times New Roman" font-size="17" font-weight="400" font-style="normal" 
>
<text fill="#1f2933" fill-opacity="1" stroke="none" xml:space="preserve" x="0" y="0" font-family="Times New Roman" font-size="17" font-weight="400" font-style="normal" 
 >Mean</text>
</g>

<g fill="#1f2933" fill-opacity="1" stroke="#1f2933" stroke-opacity="1" stroke-width="1" stroke-linecap="square" stroke-linejoin="bevel" transform="matrix(0.5,0,0,0.5,45.498,106.125)"
font-family="Times New Roman" font-size="17" font-weight="400" font-style="normal" 
>
<text fill="#1f2933" fill-opacity="1" stroke="none" xml:space="preserve" x="0" y="0" font-family="Times New Roman" font-size="17" font-weight="400" font-style="normal" 
 >P50</text>
</g>

<g fill="#1f2933" fill-opacity="1" stroke="#1f2933" stroke-opacity="1" stroke-width="1" stroke-linecap="square" stroke-linejoin="bevel" transform="matrix(0.5,0,0,0.5,45.498,138.625)"
font-family="Times New Roman" font-size="17" font-weight="400" font-style="normal" 
>
<text fill="#1f2933" fill-opacity="1" stroke="none" xml:space="preserve" x="0" y="0" font-family="Times New Roman" font-size="17" font-weight="400" font-style="normal" 
 >P90</text>
</g>

<g fill="#1f2933" fill-opacity="1" stroke="#1f2933" stroke-opacity="1" stroke-width="1" stroke-linecap="square" stroke-linejoin="bevel" transform="matrix(0.5,0,0,0.5,45.498,171.125)"
font-family="Times New Roman" font-size="17" font-weight="400" font-style="normal" 
>
<text fill="#1f2933" fill-opacity="1" stroke="none" xml:space="preserve" x="0" y="0" font-family="Times New Roman" font-size="17" font-weight="400" font-style="normal" 
 >P95</text>
</g>

<g fill="#1f2933" fill-opacity="1" stroke="#1f2933" stroke-opacity="1" stroke-width="1" stroke-linecap="square" stroke-linejoin="bevel" transform="matrix(0.5,0,0,0.5,45.498,203.625)"
font-family="Times New Roman" font-size="17" font-weight="400" font-style="normal" 
>
<text fill="#1f2933" fill-opacity="1" stroke="none" xml:space="preserve" x="0" y="0" font-family="Times New Roman" font-size="17" font-weight="400" font-style="normal" 
 >P99</text>
</g>

<g fill="#1f2933" fill-opacity="1" stroke="#1f2933" stroke-opacity="1" stroke-width="1" stroke-linecap="square" stroke-linejoin="bevel" transform="matrix(0.5,0,0,0.5,42.998,236.125)"
font-family="Times New Roman" font-size="17" font-weight="400" font-style="normal" 
>
<text fill="#1f2933" fill-opacity="1" stroke="none" xml:space="preserve" x="0" y="0" font-family="Times New Roman" font-size="17" font-weight="400" font-style="normal" 
 >Max</text>
</g>

<g fill="#eaf0f4" fill-opacity="0.45098" stroke="none" transform="matrix(5e-05,0,0,5e-05,0,0)"
font-family="Times New Roman" font-size="17" font-weight="400" font-style="normal" 
>
<path vector-effect="none" fill-rule="evenodd" d="M8.51e+06,2.36e+06 L8.51e+06,1.775e+06 L1.34e+06,1.775e+06 L1.34e+06,2.36e+06 L8.51e+06,2.36e+06"/>
</g>

<g fill="#eaf0f4" fill-opacity="0.45098" stroke="none" transform="matrix(5e-05,0,0,5e-05,0,0)"
font-family="Times New Roman" font-size="17" font-weight="400" font-style="normal" 
>
<path vector-effect="none" fill-rule="evenodd" d="M8.51e+06,3.66e+06 L8.51e+06,3.075e+06 L1.34e+06,3.075e+06 L1.34e+06,3.66e+06 L8.51e+06,3.66e+06"/>
</g>

<g fill="#eaf0f4" fill-opacity="0.45098" stroke="none" transform="matrix(5e-05,0,0,5e-05,0,0)"
font-family="Times New Roman" font-size="17" font-weight="400" font-style="normal" 
>
<path vector-effect="none" fill-rule="evenodd" d="M8.51e+06,4.96e+06 L8.51e+06,4.375e+06 L1.34e+06,4.375e+06 L1.34e+06,4.96e+06 L8.51e+06,4.96e+06"/>
</g>

<g fill="#d9dee5" fill-opacity="1" stroke="#d9dee5" stroke-opacity="1" stroke-width="4.4" stroke-linecap="butt" stroke-linejoin="round" transform="matrix(0.5,0,0,0.5,0,0)"
font-family="Times New Roman" font-size="17" font-weight="400" font-style="normal" 
>
<polyline fill="none" vector-effect="none" points="170.341,136.875 200.381,146.625 " />
<polyline fill="none" vector-effect="none" points="169.85,201.875 169.85,211.625 " />
<polyline fill="none" vector-effect="none" points="169.85,266.875 291.74,276.625 " />
<polyline fill="none" vector-effect="none" points="169.85,331.875 313.25,341.625 " />
<polyline fill="none" vector-effect="none" points="169.85,396.875 313.25,406.625 " />
<polyline fill="none" vector-effect="none" points="600.05,461.875 721.94,471.625 " />
</g>

<g fill="#ffffff" fill-opacity="1" stroke="none" transform="matrix(5e-05,0,0,5e-05,0,0)"
font-family="Times New Roman" font-size="17" font-weight="400" font-style="normal" 
>
<path vector-effect="none" fill-rule="evenodd" d="M1.65349e+06,1.31883e+06 L1.65349e+06,1.41867e+06 L1.75333e+06,1.41867e+06 L1.75333e+06,1.31883e+06 L1.65349e+06,1.31883e+06"/>
</g>

<g fill="none" stroke="#79cafb" stroke-opacity="1" stroke-width="2.8" stroke-linecap="butt" stroke-linejoin="miter" stroke-miterlimit="5" transform="matrix(0.5,0,0,0.5,0,0)"
font-family="Times New Roman" font-size="17" font-weight="400" font-style="normal" 
>
<path vector-effect="none" fill-rule="evenodd" d="M165.349,131.883 L165.349,141.867 L175.333,141.867 L175.333,131.883 L165.349,131.883"/>
</g>

<g fill="#ffffff" fill-opacity="1" stroke="none" transform="matrix(5e-05,0,0,5e-05,0,0)"
font-family="Times New Roman" font-size="17" font-weight="400" font-style="normal" 
>
<path vector-effect="none" fill-rule="evenodd" d="M1.64858e+06,1.96883e+06 L1.64858e+06,2.06867e+06 L1.74842e+06,2.06867e+06 L1.74842e+06,1.96883e+06 L1.64858e+06,1.96883e+06"/>
</g>

<g fill="none" stroke="#79cafb" stroke-opacity="1" stroke-width="2.8" stroke-linecap="butt" stroke-linejoin="miter" stroke-miterlimit="5" transform="matrix(0.5,0,0,0.5,0,0)"
font-family="Times New Roman" font-size="17" font-weight="400" font-style="normal" 
>
<path vector-effect="none" fill-rule="evenodd" d="M164.858,196.883 L164.858,206.867 L174.842,206.867 L174.842,196.883 L164.858,196.883"/>
</g>

<g fill="#ffffff" fill-opacity="1" stroke="none" transform="matrix(5e-05,0,0,5e-05,0,0)"
font-family="Times New Roman" font-size="17" font-weight="400" font-style="normal" 
>
<path vector-effect="none" fill-rule="evenodd" d="M1.64858e+06,2.61883e+06 L1.64858e+06,2.71867e+06 L1.74842e+06,2.71867e+06 L1.74842e+06,2.61883e+06 L1.64858e+06,2.61883e+06"/>
</g>

<g fill="none" stroke="#79cafb" stroke-opacity="1" stroke-width="2.8" stroke-linecap="butt" stroke-linejoin="miter" stroke-miterlimit="5" transform="matrix(0.5,0,0,0.5,0,0)"
font-family="Times New Roman" font-size="17" font-weight="400" font-style="normal" 
>
<path vector-effect="none" fill-rule="evenodd" d="M164.858,261.883 L164.858,271.867 L174.842,271.867 L174.842,261.883 L164.858,261.883"/>
</g>

<g fill="#ffffff" fill-opacity="1" stroke="none" transform="matrix(5e-05,0,0,5e-05,0,0)"
font-family="Times New Roman" font-size="17" font-weight="400" font-style="normal" 
>
<path vector-effect="none" fill-rule="evenodd" d="M1.64858e+06,3.26883e+06 L1.64858e+06,3.36867e+06 L1.74842e+06,3.36867e+06 L1.74842e+06,3.26883e+06 L1.64858e+06,3.26883e+06"/>
</g>

<g fill="none" stroke="#79cafb" stroke-opacity="1" stroke-width="2.8" stroke-linecap="butt" stroke-linejoin="miter" stroke-miterlimit="5" transform="matrix(0.5,0,0,0.5,0,0)"
font-family="Times New Roman" font-size="17" font-weight="400" font-style="normal" 
>
<path vector-effect="none" fill-rule="evenodd" d="M164.858,326.883 L164.858,336.867 L174.842,336.867 L174.842,326.883 L164.858,326.883"/>
</g>

<g fill="#ffffff" fill-opacity="1" stroke="none" transform="matrix(5e-05,0,0,5e-05,0,0)"
font-family="Times New Roman" font-size="17" font-weight="400" font-style="normal" 
>
<path vector-effect="none" fill-rule="evenodd" d="M1.64858e+06,3.91883e+06 L1.64858e+06,4.01867e+06 L1.74842e+06,4.01867e+06 L1.74842e+06,3.91883e+06 L1.64858e+06,3.91883e+06"/>
</g>

<g fill="none" stroke="#79cafb" stroke-opacity="1" stroke-width="2.8" stroke-linecap="butt" stroke-linejoin="miter" stroke-miterlimit="5" transform="matrix(0.5,0,0,0.5,0,0)"
font-family="Times New Roman" font-size="17" font-weight="400" font-style="normal" 
>
<path vector-effect="none" fill-rule="evenodd" d="M164.858,391.883 L164.858,401.867 L174.842,401.867 L174.842,391.883 L164.858,391.883"/>
</g>

<g fill="#ffffff" fill-opacity="1" stroke="none" transform="matrix(5e-05,0,0,5e-05,0,0)"
font-family="Times New Roman" font-size="17" font-weight="400" font-style="normal" 
>
<path vector-effect="none" fill-rule="evenodd" d="M5.95058e+06,4.56883e+06 L5.95058e+06,4.66867e+06 L6.05042e+06,4.66867e+06 L6.05042e+06,4.56883e+06 L5.95058e+06,4.56883e+06"/>
</g>

<g fill="none" stroke="#79cafb" stroke-opacity="1" stroke-width="2.8" stroke-linecap="butt" stroke-linejoin="miter" stroke-miterlimit="5" transform="matrix(0.5,0,0,0.5,0,0)"
font-family="Times New Roman" font-size="17" font-weight="400" font-style="normal" 
>
<path vector-effect="none" fill-rule="evenodd" d="M595.058,456.883 L595.058,466.867 L605.042,466.867 L605.042,456.883 L595.058,456.883"/>
</g>

<g fill="#5292f7" fill-opacity="1" stroke="none" transform="matrix(0.5,0,0,0.5,0,0)"
font-family="Times New Roman" font-size="17" font-weight="400" font-style="normal" 
>
<circle cx="200.381" cy="146.625" r="5.6"/>
</g>

<g fill="none" stroke="#1f2933" stroke-opacity="1" stroke-width="1.4" stroke-linecap="butt" stroke-linejoin="miter" stroke-miterlimit="5" transform="matrix(0.5,0,0,0.5,0,0)"
font-family="Times New Roman" font-size="17" font-weight="400" font-style="normal" 
>
<path vector-effect="none" fill-rule="evenodd" d="M205.981,146.625 C205.981,143.532 203.474,141.025 200.381,141.025 C197.289,141.025 194.781,143.532 194.781,146.625 C194.781,149.718 197.289,152.225 200.381,152.225 C203.474,152.225 205.981,149.718 205.981,146.625 "/>
</g>

<g fill="#5292f7" fill-opacity="1" stroke="none" transform="matrix(0.5,0,0,0.5,0,0)"
font-family="Times New Roman" font-size="17" font-weight="400" font-style="normal" 
>
<circle cx="169.85" cy="211.625" r="5.6"/>
</g>

<g fill="none" stroke="#1f2933" stroke-opacity="1" stroke-width="1.4" stroke-linecap="butt" stroke-linejoin="miter" stroke-miterlimit="5" transform="matrix(0.5,0,0,0.5,0,0)"
font-family="Times New Roman" font-size="17" font-weight="400" font-style="normal" 
>
<path vector-effect="none" fill-rule="evenodd" d="M175.45,211.625 C175.45,208.532 172.943,206.025 169.85,206.025 C166.757,206.025 164.25,208.532 164.25,211.625 C164.25,214.718 166.757,217.225 169.85,217.225 C172.943,217.225 175.45,214.718 175.45,211.625 "/>
</g>

<g fill="#5292f7" fill-opacity="1" stroke="none" transform="matrix(0.5,0,0,0.5,0,0)"
font-family="Times New Roman" font-size="17" font-weight="400" font-style="normal" 
>
<circle cx="291.74" cy="276.625" r="5.6"/>
</g>

<g fill="none" stroke="#1f2933" stroke-opacity="1" stroke-width="1.4" stroke-linecap="butt" stroke-linejoin="miter" stroke-miterlimit="5" transform="matrix(0.5,0,0,0.5,0,0)"
font-family="Times New Roman" font-size="17" font-weight="400" font-style="normal" 
>
<path vector-effect="none" fill-rule="evenodd" d="M297.34,276.625 C297.34,273.532 294.833,271.025 291.74,271.025 C288.647,271.025 286.14,273.532 286.14,276.625 C286.14,279.718 288.647,282.225 291.74,282.225 C294.833,282.225 297.34,279.718 297.34,276.625 "/>
</g>

<g fill="#5292f7" fill-opacity="1" stroke="none" transform="matrix(0.5,0,0,0.5,0,0)"
font-family="Times New Roman" font-size="17" font-weight="400" font-style="normal" 
>
<circle cx="313.25" cy="341.625" r="5.6"/>
</g>

<g fill="none" stroke="#1f2933" stroke-opacity="1" stroke-width="1.4" stroke-linecap="butt" stroke-linejoin="miter" stroke-miterlimit="5" transform="matrix(0.5,0,0,0.5,0,0)"
font-family="Times New Roman" font-size="17" font-weight="400" font-style="normal" 
>
<path vector-effect="none" fill-rule="evenodd" d="M318.85,341.625 C318.85,338.532 316.343,336.025 313.25,336.025 C310.157,336.025 307.65,338.532 307.65,341.625 C307.65,344.718 310.157,347.225 313.25,347.225 C316.343,347.225 318.85,344.718 318.85,341.625 "/>
</g>

<g fill="#5292f7" fill-opacity="1" stroke="none" transform="matrix(0.5,0,0,0.5,0,0)"
font-family="Times New Roman" font-size="17" font-weight="400" font-style="normal" 
>
<circle cx="313.25" cy="406.625" r="5.6"/>
</g>

<g fill="none" stroke="#1f2933" stroke-opacity="1" stroke-width="1.4" stroke-linecap="butt" stroke-linejoin="miter" stroke-miterlimit="5" transform="matrix(0.5,0,0,0.5,0,0)"
font-family="Times New Roman" font-size="17" font-weight="400" font-style="normal" 
>
<path vector-effect="none" fill-rule="evenodd" d="M318.85,406.625 C318.85,403.532 316.343,401.025 313.25,401.025 C310.157,401.025 307.65,403.532 307.65,406.625 C307.65,409.718 310.157,412.225 313.25,412.225 C316.343,412.225 318.85,409.718 318.85,406.625 "/>
</g>

<g fill="#5292f7" fill-opacity="1" stroke="none" transform="matrix(0.5,0,0,0.5,0,0)"
font-family="Times New Roman" font-size="17" font-weight="400" font-style="normal" 
>
<circle cx="721.94" cy="471.625" r="5.6"/>
</g>

<g fill="none" stroke="#1f2933" stroke-opacity="1" stroke-width="1.4" stroke-linecap="butt" stroke-linejoin="miter" stroke-miterlimit="5" transform="matrix(0.5,0,0,0.5,0,0)"
font-family="Times New Roman" font-size="17" font-weight="400" font-style="normal" 
>
<path vector-effect="none" fill-rule="evenodd" d="M727.54,471.625 C727.54,468.532 725.033,466.025 721.94,466.025 C718.847,466.025 716.34,468.532 716.34,471.625 C716.34,474.718 718.847,477.225 721.94,477.225 C725.033,477.225 727.54,474.718 727.54,471.625 "/>
</g>

<g fill="#1f2933" fill-opacity="1" stroke="#1f2933" stroke-opacity="1" stroke-width="1" stroke-linecap="square" stroke-linejoin="bevel" transform="matrix(0.5,0,0,0.5,106.644,73.625)"
font-family="Times New Roman" font-size="17" font-weight="400" font-style="normal" 
>
<text fill="#1f2933" fill-opacity="1" stroke="none" xml:space="preserve" x="0" y="0" font-family="Times New Roman" font-size="17" font-weight="400" font-style="normal" 
 >+4.19 ms</text>
</g>

<g fill="#1f2933" fill-opacity="1" stroke="#1f2933" stroke-opacity="1" stroke-width="1" stroke-linecap="square" stroke-linejoin="bevel" transform="matrix(0.5,0,0,0.5,91.378,106.125)"
font-family="Times New Roman" font-size="17" font-weight="400" font-style="normal" 
>
<text fill="#1f2933" fill-opacity="1" stroke="none" xml:space="preserve" x="0" y="0" font-family="Times New Roman" font-size="17" font-weight="400" font-style="normal" 
 >+0.00 ms</text>
</g>

<g fill="#1f2933" fill-opacity="1" stroke="#1f2933" stroke-opacity="1" stroke-width="1" stroke-linecap="square" stroke-linejoin="bevel" transform="matrix(0.5,0,0,0.5,152.323,138.625)"
font-family="Times New Roman" font-size="17" font-weight="400" font-style="normal" 
>
<text fill="#1f2933" fill-opacity="1" stroke="none" xml:space="preserve" x="0" y="0" font-family="Times New Roman" font-size="17" font-weight="400" font-style="normal" 
 >+17.00 ms</text>
</g>

<g fill="#1f2933" fill-opacity="1" stroke="#1f2933" stroke-opacity="1" stroke-width="1" stroke-linecap="square" stroke-linejoin="bevel" transform="matrix(0.5,0,0,0.5,163.078,171.125)"
font-family="Times New Roman" font-size="17" font-weight="400" font-style="normal" 
>
<text fill="#1f2933" fill-opacity="1" stroke="none" xml:space="preserve" x="0" y="0" font-family="Times New Roman" font-size="17" font-weight="400" font-style="normal" 
 >+20.00 ms</text>
</g>

<g fill="#1f2933" fill-opacity="1" stroke="#1f2933" stroke-opacity="1" stroke-width="1" stroke-linecap="square" stroke-linejoin="bevel" transform="matrix(0.5,0,0,0.5,163.078,203.625)"
font-family="Times New Roman" font-size="17" font-weight="400" font-style="normal" 
>
<text fill="#1f2933" fill-opacity="1" stroke="none" xml:space="preserve" x="0" y="0" font-family="Times New Roman" font-size="17" font-weight="400" font-style="normal" 
 >+20.00 ms</text>
</g>

<g fill="#1f2933" fill-opacity="1" stroke="#1f2933" stroke-opacity="1" stroke-width="1" stroke-linecap="square" stroke-linejoin="bevel" transform="matrix(0.5,0,0,0.5,367.423,236.125)"
font-family="Times New Roman" font-size="17" font-weight="400" font-style="normal" 
>
<text fill="#1f2933" fill-opacity="1" stroke="none" xml:space="preserve" x="0" y="0" font-family="Times New Roman" font-size="17" font-weight="400" font-style="normal" 
 >+17.00 ms</text>
</g>

<g fill="#1f2933" fill-opacity="1" stroke="#1f2933" stroke-opacity="1" stroke-width="1" stroke-linecap="square" stroke-linejoin="bevel" transform="matrix(0.5,0,0,0.5,67.5,30.275)"
font-family="Times New Roman" font-size="17" font-weight="400" font-style="normal" 
>
<text fill="#1f2933" fill-opacity="1" stroke="none" xml:space="preserve" x="0" y="0" font-family="Times New Roman" font-size="17" font-weight="400" font-style="normal" 
 >n = 50,000 each  |  SLA violations = 0/50,000 for both</text>
</g>

<g fill="#1f2933" fill-opacity="1" stroke="#1f2933" stroke-opacity="1" stroke-width="1" stroke-linecap="square" stroke-linejoin="bevel" transform="matrix(0.5,0,0,0.5,67.5,39.775)"
font-family="Times New Roman" font-size="17" font-weight="400" font-style="normal" 
>
<text fill="#1f2933" fill-opacity="1" stroke="none" xml:space="preserve" x="0" y="0" font-family="Times New Roman" font-size="17" font-weight="400" font-style="normal" 
 >FIFO mass at 5 ms = 99.53%  |  right labels = candidate - FIFO</text>
</g>

<g fill="#ffffff" fill-opacity="1" stroke="none" transform="matrix(5e-05,0,0,5e-05,0,0)"
font-family="Times New Roman" font-size="17" font-weight="400" font-style="normal" 
>
<path vector-effect="none" fill-rule="evenodd" d="M5.22383e+06,1.28528e+06 L5.22383e+06,1.38473e+06 L5.32328e+06,1.38473e+06 L5.32328e+06,1.28528e+06 L5.22383e+06,1.28528e+06"/>
</g>

<g fill="none" stroke="#79cafb" stroke-opacity="1" stroke-width="2.8" stroke-linecap="butt" stroke-linejoin="miter" stroke-miterlimit="5" transform="matrix(0.5,0,0,0.5,0,0)"
font-family="Times New Roman" font-size="17" font-weight="400" font-style="normal" 
>
<path vector-effect="none" fill-rule="evenodd" d="M522.383,128.527 L522.383,138.473 L532.328,138.473 L532.328,128.527 L522.383,128.527"/>
</g>

<g fill="#5292f7" fill-opacity="1" stroke="none" transform="matrix(0.5,0,0,0.5,0,0)"
font-family="Times New Roman" font-size="17" font-weight="400" font-style="normal" 
>
<circle cx="648.417" cy="133.5" r="5.6"/>
</g>

<g fill="none" stroke="#1f2933" stroke-opacity="1" stroke-width="1.4" stroke-linecap="butt" stroke-linejoin="miter" stroke-miterlimit="5" transform="matrix(0.5,0,0,0.5,0,0)"
font-family="Times New Roman" font-size="17" font-weight="400" font-style="normal" 
>
<path vector-effect="none" fill-rule="evenodd" d="M654.017,133.5 C654.017,130.407 651.509,127.9 648.417,127.9 C645.324,127.9 642.817,130.407 642.817,133.5 C642.817,136.593 645.324,139.1 648.417,139.1 C651.509,139.1 654.017,136.593 654.017,133.5 "/>
</g>

<g fill="#1f2933" fill-opacity="1" stroke="#1f2933" stroke-opacity="1" stroke-width="1" stroke-linecap="square" stroke-linejoin="bevel" transform="matrix(0.5,0,0,0.5,269.107,69.5)"
font-family="Times New Roman" font-size="16" font-weight="400" font-style="normal" 
>
<text fill="#1f2933" fill-opacity="1" stroke="none" xml:space="preserve" x="0" y="0" font-family="Times New Roman" font-size="16" font-weight="400" font-style="normal" 
 >FIFO baseline</text>
</g>

<g fill="#1f2933" fill-opacity="1" stroke="#1f2933" stroke-opacity="1" stroke-width="1" stroke-linecap="square" stroke-linejoin="bevel" transform="matrix(0.5,0,0,0.5,329.637,69.5)"
font-family="Times New Roman" font-size="16" font-weight="400" font-style="normal" 
>
<text fill="#1f2933" fill-opacity="1" stroke="none" xml:space="preserve" x="0" y="0" font-family="Times New Roman" font-size="16" font-weight="400" font-style="normal" 
 >Bounded rolling exchange</text>
</g>
</g>
</svg>
